# xmcd
#
# Track frame offsets:
#	150
#	17351
#	31917
#	51015
#	70546
#	88211
#	107539
#	123294
#	144324
#	161363
#	179087
#	195816
#	213954
#	230564
#	247091
#	266270
#
# Disc length: 3782 seconds
#
# Revision: 0
# Processed by: cddbd v1.5.2PL0 Copyright (c) Steve Scherf et al.
# Submitted via: EasyCDDAExtractor 15.3.0.1
#
DISCID=ca0ec410
DTITLE=Various Artist - NEW DISCO POLO AND DANCE 2
DYEAR=2007
DGENRE=disco polo
TTITLE0=marcin toples siegienczuk - jak na imie ta dziewczyna ma 2008
TTITLE1=magdalena niewinska - mezu drogi moj
TTITLE2=nazir - to byl twoj blad
TTITLE3=impuls - ile prawdy
TTITLE4=crazy dj - biznesmen
TTITLE5=time - lzy rozstania
TTITLE6=julio - wspomnienia z podstawowki
TTITLE7=mega dance - trudna milosc
TTITLE8=impuls - pokochalem cie
TTITLE9=4ever - tak trudno
TTITLE10=junior - namietnosci plomien
TTITLE11=mega dance - przyjaciel
TTITLE12=system - bezstroskie dni
TTITLE13=v i p - zacznijmy wiec
TTITLE14=no name - nie pozwol mi
TTITLE15=vexel - nasze serca
EXTD=
EXTT0=
EXTT1=
EXTT2=
EXTT3=
EXTT4=
EXTT5=
EXTT6=
EXTT7=
EXTT8=
EXTT9=
EXTT10=
EXTT11=
EXTT12=
EXTT13=
EXTT14=
EXTT15=
PLAYORDER=
